<svg xmlns="http://www.w3.org/2000/svg" xmlns:xlink="http://www.w3.org/1999/xlink" viewBox="0 0 1872.48 262.78"><defs><style>.a,.d,.g,.h,.j,.k,.n,.o,.p,.q{fill:none;}.b,.c{fill:#101010;}.b,.g,.h,.j,.k,.o,.p,.q{stroke:#000;}.b,.c,.d,.g,.h,.j,.k,.n,.o,.p,.q{stroke-miterlimit:10;}.b{stroke-width:0.75px;}.c{stroke:#39303a;}.d{stroke:#a96dc8;stroke-width:1.77px;}.e{clip-path:url(#a);}.f{fill:#3b344d;}.g,.o{stroke-width:3.32px;}.h,.o,.p,.q{stroke-linecap:round;}.h{stroke-width:2.49px;}.i{fill:#ffdafc;}.j,.q{stroke-width:1.66px;}.k{stroke-width:4.15px;}.l{fill:#3d334b;}.m{fill:#fff;}.n{stroke:#fff;}.n,.p{stroke-width:0.42px;}.r{fill:#ff6b1f;}.s{fill:#b3b3b3;}</style><clipPath id="a" transform="translate(0.49 3.75)"><rect class="a" x="755" y="4.54" width="351" height="255.46"/></clipPath></defs><path class="b" d="M1871.38,197.63v-13.9q-.06-2.23,0-4.47v-.78l-.76-2q-.43-4.17-.46-8.29v0c0-.46,0-.92,0-1.38a84.73,84.73,0,0,1,1.22-14.58V-3.07H-.12v224h1871.5V202.11C1871.34,200.62,1871.34,199.13,1871.38,197.63Z" transform="translate(0.49 3.75)"/><rect class="c" x="625.66" y="0.5" width="312.34" height="229.18"/><rect class="c" x="313.32" y="0.5" width="312.34" height="229.18"/><rect class="c" x="1559.64" y="0.5" width="312.34" height="229.18"/><rect class="c" x="1248.82" y="0.5" width="312.34" height="229.18"/><rect class="c" x="936.48" y="0.5" width="312.34" height="229.18"/><rect class="c" x="0.98" y="0.5" width="312.34" height="229.18"/><ellipse class="d" cx="1416.7" cy="122.21" rx="11.06" ry="10.15"/><ellipse class="d" cx="1416.24" cy="121.79" rx="23.49" ry="21.57"/><ellipse class="d" cx="1416.24" cy="121.79" rx="35.47" ry="32.57"/><path class="d" d="M1151.27,91.56c10.37,7.49,11.62,19.77,6.64,23.74s-19.32,1.7-24.68-9.36c-4.09-8.44-8.62-24.47-6.64-23.74C1129.33,83.19,1141.62,84.59,1151.27,91.56Z" transform="translate(0.49 3.75)"/><path class="d" d="M1188.91,106c-6.59,10.49-19.66,13.38-24.65,9.42s-4.59-17.31,6.57-23.76c8.53-4.93,25.16-11.33,24.66-9.42C1194.8,84.9,1195.05,96.27,1188.91,106Z" transform="translate(0.49 3.75)"/><path class="d" d="M1172.09,142.86c-10.76-7-12.69-19.21-7.94-23.41s19.2-2.6,25.17,8.2c4.55,8.24,10,24,7.94,23.41C1194.47,150.19,1182.11,149.37,1172.09,142.86Z" transform="translate(0.49 3.75)"/><path class="d" d="M1133.7,130.16c6-10.78,18.9-14.28,24.1-10.55s5.54,17.07-5.25,24c-8.24,5.32-24.5,12.48-24.1,10.55C1129,151.54,1128.11,140.19,1133.7,130.16Z" transform="translate(0.49 3.75)"/><ellipse class="d" cx="460.24" cy="128.74" rx="11.06" ry="10.15"/><ellipse class="d" cx="459.78" cy="128.32" rx="23.49" ry="21.57"/><ellipse class="d" cx="459.78" cy="128.32" rx="35.47" ry="32.57"/><path class="d" d="M118.61,93.89c10.37,7.48,11.62,19.77,6.64,23.74s-19.32,1.7-24.68-9.36C96.48,99.83,92,83.8,93.94,84.53,96.67,85.52,109,86.92,118.61,93.89Z" transform="translate(0.49 3.75)"/><path class="d" d="M156.25,108.36c-6.59,10.49-19.66,13.38-24.65,9.41S127,100.46,138.17,94c8.53-4.93,25.16-11.33,24.66-9.42C162.14,87.23,162.39,98.6,156.25,108.36Z" transform="translate(0.49 3.75)"/><path class="d" d="M139.43,145.19c-10.76-7-12.69-19.21-7.94-23.41s19.2-2.6,25.17,8.2c4.55,8.24,10,24,7.94,23.4C161.81,152.52,149.45,151.7,139.43,145.19Z" transform="translate(0.49 3.75)"/><path class="d" d="M101,132.49c6-10.78,18.9-14.28,24.1-10.55s5.54,17.07-5.25,24c-8.24,5.31-24.5,12.48-24.1,10.55C96.33,153.87,95.45,142.52,101,132.49Z" transform="translate(0.49 3.75)"/><g class="e"><g class="e"><path class="f" d="M978.27,223.48l36,0c4.47-41.63-31.86-61.68-76.61-59.37-46.85,2.41-86,20.42-76.62,59.69q58.61-.44,117.21-.35" transform="translate(0.49 3.75)"/><path class="g" d="M978.27,223.48l36,0c4.47-41.63-31.86-61.68-76.61-59.37-46.85,2.41-86,20.42-76.62,59.69Q919.67,223.4,978.27,223.48Z" transform="translate(0.49 3.75)"/><path class="f" d="M900.84,237.57c-2.14,12.35-10.92,21.14-19.62,19.63s-14-12.73-11.88-25.08S880.26,211,889,212.49s14,12.73,11.89,25.08" transform="translate(0.49 3.75)"/><path class="g" d="M900.84,237.57c-2.14,12.35-10.92,21.14-19.62,19.63s-14-12.73-11.88-25.08S880.26,211,889,212.49,903,225.22,900.84,237.57Z" transform="translate(0.49 3.75)"/><path class="f" d="M1004.65,232.13c1.8,12.4-3.82,23.48-12.56,24.75s-17.28-7.76-19.08-20.16,3.82-23.48,12.56-24.75,17.27,7.76,19.08,20.16" transform="translate(0.49 3.75)"/><path class="g" d="M1004.65,232.13c1.8,12.4-3.82,23.48-12.56,24.75s-17.28-7.76-19.08-20.16,3.82-23.48,12.56-24.75S1002.84,219.73,1004.65,232.13Z" transform="translate(0.49 3.75)"/><path class="f" d="M985.25,242.9a24.92,24.92,0,0,1-1.6,10.68" transform="translate(0.49 3.75)"/><path class="h" d="M985.25,242.9a24.92,24.92,0,0,1-1.6,10.68" transform="translate(0.49 3.75)"/><path class="f" d="M996.29,245a24.78,24.78,0,0,1-1.61,10.68" transform="translate(0.49 3.75)"/><path class="h" d="M996.29,245a24.78,24.78,0,0,1-1.61,10.68" transform="translate(0.49 3.75)"/><path class="f" d="M879.32,243.33a25.06,25.06,0,0,1,0,3.47,25.42,25.42,0,0,1-1.6,7.21" transform="translate(0.49 3.75)"/><path class="h" d="M879.32,243.33a25.06,25.06,0,0,1,0,3.47,25.42,25.42,0,0,1-1.6,7.21" transform="translate(0.49 3.75)"/><path class="f" d="M890.35,245.45a23.59,23.59,0,0,1,0,3.47,24.93,24.93,0,0,1-1.6,7.21" transform="translate(0.49 3.75)"/><path class="h" d="M890.35,245.45a23.59,23.59,0,0,1,0,3.47,24.93,24.93,0,0,1-1.6,7.21" transform="translate(0.49 3.75)"/><path class="f" d="M1032.85,61.87c-.59-5.72-1.32-13.48-2.09-24.46-3.74-68.18-56.38-.14-73.71,36.32l70.5,31.51c1.36-5.27,2.48-9.32,3.39-12.55a11.8,11.8,0,0,1,.52-3.49c.18-.59.36-1.19.55-1.78,0-.48,0-1,.06-1.45a43.38,43.38,0,0,1,.64-5.32,69.46,69.46,0,0,1,.14-18.78" transform="translate(0.49 3.75)"/><path class="g" d="M1032.85,61.87c-.59-5.72-1.32-13.48-2.09-24.46-3.74-68.18-56.38-.14-73.71,36.32l70.5,31.51c1.36-5.27,2.48-9.32,3.39-12.55a11.8,11.8,0,0,1,.52-3.49c.18-.59.36-1.19.55-1.78,0-.48,0-1,.06-1.45a43.38,43.38,0,0,1,.64-5.32A69.46,69.46,0,0,1,1032.85,61.87Z" transform="translate(0.49 3.75)"/><path class="f" d="M886,28.87c-4.61-4.82-11.94-13.09-23-19.23a26.41,26.41,0,0,0-4.31-2l-6.33.08c-1.31.69-3,2.43-6.45,9.39a74.7,74.7,0,0,0-4.81,11.21c-7.3,23.1-3.74,47.54-3.74,47.54A112,112,0,0,0,846,105.24l63-34.71A68.6,68.6,0,0,0,904.18,54C899.41,43,893,36.1,886,28.87Z" transform="translate(0.49 3.75)"/><path class="g" d="M856.68,7.13a17.9,17.9,0,0,1-3.61.46C843.42,17.24,838.6,30.1,837,43c-1.61,20.9-1.61,43.41,9,62.28" transform="translate(0.49 3.75)"/><path class="g" d="M909,70.53c-3.54-22.21-19.14-40.75-36.34-54.43" transform="translate(0.49 3.75)"/><path class="i" d="M844.9,97.76c-5.26-16.19-9-67.68,6.94-87.05,11.5,14.16,31.74,41.93,31,57.14" transform="translate(0.49 3.75)"/><path class="j" d="M844.9,97.76c-5.26-16.19-9-67.68,6.94-87.05,11.5,14.16,31.74,41.93,31,57.14" transform="translate(0.49 3.75)"/><path class="i" d="M1026.48,98.83c7.69-16.86,5.18-71-7.47-87.59-5.76,2-41.93,49.06-32,58.22" transform="translate(0.49 3.75)"/><path class="j" d="M1026.48,98.83c7.69-16.86,5.18-71-7.47-87.59-5.76,2-41.93,49.06-32,58.22" transform="translate(0.49 3.75)"/><path class="f" d="M1025.15,163.45c-20.81,31-65.31,30.48-96.94,31.25-62.1,1.66-123.8-33.82-81.71-99.34,52.7-66.94,230.15-30.6,178.65,68.09" transform="translate(0.49 3.75)"/><path class="k" d="M1025.15,163.45c-20.81,31-65.31,30.48-96.94,31.25-62.1,1.66-123.8-33.82-81.71-99.34C899.2,28.42,1076.65,64.76,1025.15,163.45Z" transform="translate(0.49 3.75)"/><path class="l" d="M985.33,68.39c1.17-.17,2.89-.39,5-.54a28.76,28.76,0,0,1,6.59,0c3.69.57,6.7,2.21,6.58,2.68,0,.16-.47.07-2.47.49-.48.1-.85.18-1.21.28,0,0-.78.21-1.48.47-1,.37-3.12,1.29-3,1.6s7.66-.17,7.66-.17,3.13,1.24,3.74,1.6a17.81,17.81,0,0,1,3.56,2.85c1.15,1.1,1.73,1.65,1.6,1.95-.28.66-2.88-.35-6.59-.17a18.35,18.35,0,0,0-4.27.71" transform="translate(0.49 3.75)"/><path class="j" d="M985.33,68.39c1.17-.17,2.89-.39,5-.54a28.76,28.76,0,0,1,6.59,0c3.69.57,6.7,2.21,6.58,2.68,0,.16-.47.07-2.47.49-.48.1-.85.18-1.21.28,0,0-.78.21-1.48.47-1,.37-3.12,1.29-3,1.6s7.66-.17,7.66-.17,3.13,1.24,3.74,1.6a17.81,17.81,0,0,1,3.56,2.85c1.15,1.1,1.73,1.65,1.6,1.95-.28.66-2.88-.35-6.59-.17a18.35,18.35,0,0,0-4.27.71" transform="translate(0.49 3.75)"/><path class="m" d="M955.63,164.46l1.74,1.59-3.23,3.38-1.4-3.6,1.18-1.24c.58,0,1.14-.07,1.71-.13" transform="translate(0.49 3.75)"/><path class="n" d="M955.63,164.46l1.74,1.59-3.23,3.38-1.4-3.6,1.18-1.24C954.5,164.57,955.06,164.52,955.63,164.46Z" transform="translate(0.49 3.75)"/><path d="M937.55,142.71h.22c.57,0,1.14.07,1.72.07h.59c.41,0,.81,0,1.22,0l.24,0c.8.31,1.63.59,2.46.82h0v2.88a28.07,28.07,0,0,0-6.23,4.33c-.27.25-.54.5-.79.76h-.46v-8.89l1,0" transform="translate(0.49 3.75)"/><path class="g" d="M937.48,142.63h.22c.58,0,1.16.08,1.74.08h.6c.42,0,.83,0,1.23,0l.24,0c.82.32,1.65.59,2.49.83v.08s.2.19,0,.28v2.69a34.58,34.58,0,0,0-6.06,4.32c-.28.25-.8.68-.8.68h-.62v-9Q937,142.63,937.48,142.63Z" transform="translate(0.49 3.75)"/><path class="o" d="M966.32,161.13a22.88,22.88,0,0,1-6,2.33,20.47,20.47,0,0,1-10.44,0,16.68,16.68,0,0,1-9.83-6.69,15.24,15.24,0,0,1-2.39-9.3" transform="translate(0.49 3.75)"/><path d="M962,133.22a34.41,34.41,0,0,1,6.41-6.25,36.49,36.49,0,0,1,7.45-4.22,41.13,41.13,0,0,1,7.3-2.18c1.8-.41,1.37-.23,6.45-1l.54,0a26.3,26.3,0,0,0,4.06-.29c.86,0,1.69-.07,2.49-.16h.2l.5.05a16.16,16.16,0,0,0,1.57.64,4.88,4.88,0,0,1,1.78,2.35,4.29,4.29,0,0,1-.3,3.63,3.94,3.94,0,0,1-1.64,1.46,5.08,5.08,0,0,1-2.83.29c-1.78-.18-3.58.06-5.36,0-3-.1-5.55,0-6.26,0-9.41.41-18.48,7.89-19.68,9.74a3.41,3.41,0,0,1-1.49,1.31,2.71,2.71,0,0,1-1.64.14,2.4,2.4,0,0,1-1.49-1c-.47-.83.07-2.15,1.94-4.5" transform="translate(0.49 3.75)"/><path class="p" d="M962,133.22a34.41,34.41,0,0,1,6.41-6.25,36.49,36.49,0,0,1,7.45-4.22,41.13,41.13,0,0,1,7.3-2.18c1.8-.41,1.37-.23,6.45-1l.54,0a26.3,26.3,0,0,0,4.06-.29c.86,0,1.69-.07,2.49-.16h.2l.5.05a16.16,16.16,0,0,0,1.57.64,4.88,4.88,0,0,1,1.78,2.35,4.29,4.29,0,0,1-.3,3.63,3.94,3.94,0,0,1-1.64,1.46,5.08,5.08,0,0,1-2.83.29c-1.78-.18-3.58.06-5.36,0-3-.1-5.55,0-6.26,0-9.41.41-18.48,7.89-19.68,9.74a3.41,3.41,0,0,1-1.49,1.31,2.71,2.71,0,0,1-1.64.14,2.4,2.4,0,0,1-1.49-1C959.59,136.89,960.13,135.57,962,133.22Z" transform="translate(0.49 3.75)"/><path class="q" d="M981.22,112a7.53,7.53,0,0,1,3,9.88" transform="translate(0.49 3.75)"/><path class="q" d="M989.81,111.26a7.85,7.85,0,0,1,3.13,3.49,7.94,7.94,0,0,1-.15,6.4" transform="translate(0.49 3.75)"/><path class="q" d="M998.38,109.61a7.53,7.53,0,0,1,1.88,10.15" transform="translate(0.49 3.75)"/><path class="m" d="M918.47,164.49l-1.74,1.58,3.24,3.39,1.4-3.6-1.19-1.24c-.57,0-1.14-.07-1.71-.13" transform="translate(0.49 3.75)"/><path class="n" d="M918.47,164.49l-1.74,1.58,3.24,3.39,1.4-3.6-1.19-1.24C919.61,164.6,919,164.55,918.47,164.49Z" transform="translate(0.49 3.75)"/><path d="M936.33,142.74h-.22c-.58.05-1.15.08-1.72.08h-.6c-.41,0-.81,0-1.21,0l-.24,0a24.53,24.53,0,0,1-2.46.83h0l.41.28v2.57a26.31,26.31,0,0,1,5.88,4.33c.26.25.51.5.75.76h.43v-8.87c-.32,0-.63,0-1,0" transform="translate(0.49 3.75)"/><path class="g" d="M936.39,142.63h-.22c-.58,0-1.16.08-1.74.08h-.6c-.41,0-.82,0-1.23,0l-.24,0c-.81.32-1.64.59-2.48.83v.11s0,.19.41.28v2.68a43.3,43.3,0,0,1,5.87,4.33c.28.25.8.65.8.65h.39v-9Q936.87,142.63,936.39,142.63Z" transform="translate(0.49 3.75)"/><path class="o" d="M907.78,161.16a23.24,23.24,0,0,0,6,2.33,20.58,20.58,0,0,0,10.44,0A16.68,16.68,0,0,0,934,156.8a15.24,15.24,0,0,0,2.39-9.3" transform="translate(0.49 3.75)"/><path d="M912.1,133.25a34.63,34.63,0,0,0-6.41-6.26,36.29,36.29,0,0,0-7.45-4.21,41.13,41.13,0,0,0-7.3-2.18c-1.8-.41-1.37-.23-6.45-1l-.54,0a26.3,26.3,0,0,1-4.06-.29c-.86,0-1.69-.07-2.49-.16h-.2l-.5,0a14.06,14.06,0,0,1-1.57.65,4.88,4.88,0,0,0-1.78,2.35,4.32,4.32,0,0,0,.3,3.63,4,4,0,0,0,1.64,1.46,5.08,5.08,0,0,0,2.83.29c1.78-.18,3.58,0,5.37,0,3-.1,5.54,0,6.26,0,9.4.41,18.47,7.89,19.67,9.73a3.29,3.29,0,0,0,1.49,1.31,2.61,2.61,0,0,0,1.64.15,2.4,2.4,0,0,0,1.49-1c.47-.83-.07-2.15-1.94-4.5" transform="translate(0.49 3.75)"/><path class="p" d="M912.1,133.25a34.63,34.63,0,0,0-6.41-6.26,36.29,36.29,0,0,0-7.45-4.21,41.13,41.13,0,0,0-7.3-2.18c-1.8-.41-1.37-.23-6.45-1l-.54,0a26.3,26.3,0,0,1-4.06-.29c-.86,0-1.69-.07-2.49-.16h-.2l-.5,0a14.06,14.06,0,0,1-1.57.65,4.88,4.88,0,0,0-1.78,2.35,4.32,4.32,0,0,0,.3,3.63,4,4,0,0,0,1.64,1.46,5.08,5.08,0,0,0,2.83.29c1.78-.18,3.58,0,5.37,0,3-.1,5.54,0,6.26,0,9.4.41,18.47,7.89,19.67,9.73a3.29,3.29,0,0,0,1.49,1.31,2.61,2.61,0,0,0,1.64.15,2.4,2.4,0,0,0,1.49-1C914.51,136.92,914,135.6,912.1,133.25Z" transform="translate(0.49 3.75)"/><path class="q" d="M892.89,112a7.68,7.68,0,0,0-3.13,3.49,7.88,7.88,0,0,0,.14,6.39" transform="translate(0.49 3.75)"/><path class="q" d="M884.29,111.29a7.85,7.85,0,0,0-3.13,3.49,7.94,7.94,0,0,0,.15,6.4" transform="translate(0.49 3.75)"/><path class="q" d="M875.73,109.64a7.51,7.51,0,0,0-1.89,10.15" transform="translate(0.49 3.75)"/><path class="f" d="M890,68.68c-1.17-.17-2.89-.39-5-.54a28.1,28.1,0,0,0-6.58,0c-3.7.57-6.71,2.21-6.59,2.67,0,.17.48.08,2.47.5.49.1.85.18,1.22.28,0,0,.77.21,1.47.47,1,.37,3.12,1.29,3,1.6s-7.66-.18-7.66-.18-3.13,1.25-3.73,1.61a17.53,17.53,0,0,0-3.56,2.85c-1.16,1.1-1.74,1.65-1.61,2,.29.66,2.88-.35,6.59-.17a18.25,18.25,0,0,1,4.27.71" transform="translate(0.49 3.75)"/><path class="j" d="M890,68.68c-1.17-.17-2.89-.39-5-.54a28.1,28.1,0,0,0-6.58,0c-3.7.57-6.71,2.21-6.59,2.67,0,.17.48.08,2.47.5.49.1.85.18,1.22.28,0,0,.77.21,1.47.47,1,.37,3.12,1.29,3,1.6s-7.66-.18-7.66-.18-3.13,1.25-3.73,1.61a17.53,17.53,0,0,0-3.56,2.85c-1.16,1.1-1.74,1.65-1.61,2,.29.66,2.88-.35,6.59-.17a18.25,18.25,0,0,1,4.27.71" transform="translate(0.49 3.75)"/><rect class="f" x="952.64" y="67.15" width="30.84" height="16.77" transform="translate(482.51 919.88) rotate(-64.42)"/><rect class="f" x="888.76" y="57.18" width="20.73" height="30.3" transform="translate(63.41 414.34) rotate(-26.62)"/><path class="f" d="M989.86,70.11c4.89,5.6,11.83,8.62,10.49,11.31s-8.22,2-15.35-1.56-12-8.71-10.49-11.31c1.77-3,10.57-3.93,15.35,1.56" transform="translate(0.49 3.75)"/><path class="q" d="M859.32,141.82A74.27,74.27,0,0,0,846,137.28a77.4,77.4,0,0,0-37.65.8" transform="translate(0.49 3.75)"/><path class="q" d="M865,151.7a73.24,73.24,0,0,0-14-1.62,77.24,77.24,0,0,0-36.64,8.73" transform="translate(0.49 3.75)"/><path class="q" d="M1010.84,142.33a74.52,74.52,0,0,1,13.21-5,77.31,77.31,0,0,1,37.66-.37" transform="translate(0.49 3.75)"/><path class="q" d="M1011.28,151a77.46,77.46,0,0,1,36.89,7.58" transform="translate(0.49 3.75)"/><path class="m" d="M1061.46,56.47c2.29-2.7,4.66-5.29,7-7.89s4.79-5.13,7.26-7.61c1.24-1.24,2.36-2.61,3.54-3.91a19.62,19.62,0,0,1,4-3.41,31.08,31.08,0,0,1,4.7-2.53,21.67,21.67,0,0,1,5.45-1.65l.49.57a22.34,22.34,0,0,1-2.53,5.11,32.72,32.72,0,0,1-3.29,4.21,19.57,19.57,0,0,1-4,3.35c-1.48.94-3,1.82-4.45,2.83q-4.29,3-8.71,5.9c-3,1.89-5.91,3.8-9,5.6Z" transform="translate(0.49 3.75)"/><path class="r" d="M1060.19,92.62,1106.12,88" transform="translate(0.49 3.75)"/><path class="m" d="M1060.15,92.25c3.77-1,7.55-1.8,11.33-2.64s7.58-1.58,11.38-2.26c1.89-.34,3.78-.85,5.67-1.28a24.06,24.06,0,0,1,5.73-.61,37.51,37.51,0,0,1,5.85.52,25.41,25.41,0,0,1,6,1.68l.07.74a24.84,24.84,0,0,1-5.51,2.83A38.87,38.87,0,0,1,1095,92.9a24.16,24.16,0,0,1-5.75.53c-1.94,0-3.88-.17-5.81-.13q-5.79.12-11.59,0c-3.88-.07-7.75-.13-11.63-.34Z" transform="translate(0.49 3.75)"/><line class="r" x1="806.29" y1="65.02" x2="767.83" y2="33.51"/><path class="m" d="M805.56,61.56c-3.58-2.17-7.07-4.45-10.56-6.72s-6.93-4.62-10.33-7c-1.69-1.2-3.5-2.26-5.25-3.39a28.48,28.48,0,0,1-4.84-3.91,45.39,45.39,0,0,1-4.11-4.79,28.86,28.86,0,0,1-3.37-5.69l.48-.58a29.25,29.25,0,0,1,6.24,2.18,45.3,45.3,0,0,1,5.5,3.1,27.56,27.56,0,0,1,4.79,4c1.45,1.5,2.85,3.06,4.35,4.49,3,2.86,6,5.78,8.91,8.75s5.83,5.95,8.66,9Z" transform="translate(0.49 3.75)"/><path class="r" d="M798.85,92.78l-40.07-1.07" transform="translate(0.49 3.75)"/><path class="m" d="M798.84,93.15c-3.35.5-6.7.86-10.06,1.23s-6.7.64-10,.85c-1.68.11-3.35.39-5,.58a17.89,17.89,0,0,1-5-.1,29.2,29.2,0,0,1-5-1.23,20.28,20.28,0,0,1-5-2.4l0-.74a20.69,20.69,0,0,1,5.07-2.14,29.83,29.83,0,0,1,5-1,17.92,17.92,0,0,1,5,.17c1.66.28,3.32.65,5,.84,3.33.39,6.66.86,10,1.39s6.66,1.08,10,1.76Z" transform="translate(0.49 3.75)"/></g></g><rect class="c" x="125.49" y="61.75" width="324" height="123"/><path class="s" d="M228.77,107.31a30.86,30.86,0,0,1,1,6.9,28.94,28.94,0,0,1-3.05,12.35,28.17,28.17,0,0,1-7.65,10.15q-1.2.79-4.6,2.75a25.56,25.56,0,0,1-3.7,1.95H210a41.64,41.64,0,0,1-9.1,3.35,52.21,52.21,0,0,1-8.7,1.3c-2.8.16-6.53.25-11.2.25h-1.3l-3.7-.2a2.52,2.52,0,0,1-1.05-.9c-.43-.54-1-1.27-1.65-2.2.4,0,.6-.37.6-1.1a9.44,9.44,0,0,0-.25-1.8,9.44,9.44,0,0,1-.25-1.8l.3-4.4c0-.8-.07-1.94-.2-3.4l-.1-3.3a27.56,27.56,0,0,1,.4-3.9,23.56,23.56,0,0,0,.4-3.5.47.47,0,0,0-.15-.35.49.49,0,0,0-.35-.15,19.57,19.57,0,0,0,.5-4.5q0-3.7-.8-11.1c-.53-4.94-.8-8.6-.8-11,0-.67.07-1.74.2-3.2s.2-2.6.2-3.4l-.4-3.1a5.31,5.31,0,0,1,1.65-1.45,5.62,5.62,0,0,1,2.25-.55,11.4,11.4,0,0,1,1.6.15l1.6.25h1.2q.49.2,1.35.45c.57.16,1,.28,1.35.35l1.6-.4,1.5.8c.33,0,1.67,0,4,.1s3.5.3,3.5.7c.13-.2.27-.3.4-.3a.39.39,0,0,1,.4.3h6.7a42.55,42.55,0,0,1,7.15,1c3.37.66,5.48,1.4,6.35,2.2l4.4,4.3a3.5,3.5,0,0,1,1.6,1.5c.6.86,1.1,1.33,1.5,1.4,1.33,0,2.52,1.38,3.55,4.15s1.58,4.25,1.65,4.45C228.07,103.94,228.37,105.57,228.77,107.31Zm-51.65-16a7,7,0,0,0-1.8,1.25,2.88,2.88,0,0,0-.95,1.9,2.7,2.7,0,0,0,1.45-.6,2.67,2.67,0,0,1,1.35-.6,3.7,3.7,0,0,1-.65,2,2.57,2.57,0,0,1-1.55,1.2,1.46,1.46,0,0,1,.4,1.1l-.1.4a3.26,3.26,0,0,0,1.6-1.2l.4,1.6a5.89,5.89,0,0,1,1.8-.65,10.61,10.61,0,0,0,2.15-.75,1.37,1.37,0,0,0,.75-1.3,2.86,2.86,0,0,0-.3-1.3,2.21,2.21,0,0,1-.55.55,3.76,3.76,0,0,0-.45.35.87.87,0,0,1-.35-.15c-.17-.1-.25-.19-.25-.25a1.21,1.21,0,0,1-.3,1,3.11,3.11,0,0,1-1.05.45,2.33,2.33,0,0,0-1.05.5,1.85,1.85,0,0,1,.75-1.2,2.63,2.63,0,0,0,.85-1.2,1.16,1.16,0,0,0-1.2.8v-.4a1.14,1.14,0,0,0-.8.4v-.8a33.84,33.84,0,0,1,3.9-1.5,7.08,7.08,0,0,0,1.8-1.1,5.06,5.06,0,0,1,2.6-1.3l-.1-.4c0-.47.77-1.1,2.3-1.9a19.73,19.73,0,0,0,3-2.1l-.5-.3a6.33,6.33,0,0,0-3.05,1.25,13,13,0,0,1-2.15,1.25l-.3-.1c-.8.33-2,.86-3.7,1.6a21.66,21.66,0,0,1-2.6,1.1A3.78,3.78,0,0,0,177.12,91.36Zm-2.65-7.15a7.68,7.68,0,0,0,.25,1.75,4.32,4.32,0,0,0,.55,1.45l.4-.8.4.3a1,1,0,0,1,.45-.85,6.94,6.94,0,0,1,1.25-.75,8.76,8.76,0,0,0,1.6-1,2,2,0,0,0,.7-1.3,12.26,12.26,0,0,0-1.95.2,13.48,13.48,0,0,1-1.85.2c-.6,0-.93-.14-1-.4Zm.15,6.5a5.43,5.43,0,0,0-.15,1,19.62,19.62,0,0,0,4-2.1,15.66,15.66,0,0,0,3.2-2.7,7.56,7.56,0,0,0-3.2,1.3,10.52,10.52,0,0,1-3,1.2.84.84,0,0,1-.5-.1C174.84,89.77,174.72,90.24,174.62,90.71Zm.8,10.15a1.23,1.23,0,0,1,.45.75h.5l.1.7c0,.2-.13.33-.4.4l-.4,3.2.4.4,2.8-3.1-2.4.8a.77.77,0,0,1,.3-.7,3,3,0,0,1,1-.35,1.7,1.7,0,0,0,1.05-.55l.4.3.4-.8h2v-3.1a4.43,4.43,0,0,1-2.5.9.86.86,0,0,0,.5.7l-1.6.8a6,6,0,0,1,2-2.8,13,13,0,0,0-3.15.5c-1.3.33-1.95.76-1.95,1.3C175,100.34,175.12,100.56,175.42,100.86ZM180.87,83a4,4,0,0,1-1,1.7,15.37,15.37,0,0,1-2,1.6,16.11,16.11,0,0,0-2.2,1.9h.8l3.6-2.1a1.48,1.48,0,0,0,.6.1,5.31,5.31,0,0,0,1.9-.6,5.43,5.43,0,0,1,1.8-.6l-.8.8h.8a13,13,0,0,1-2.2,1.8,7.43,7.43,0,0,0-2.1,1.7,2.91,2.91,0,0,0,1.25-.4,2.69,2.69,0,0,1,1.15-.4l9.2-3.9h-2.9v-.4l-.8.4c-.47-.07-1.2-.24-2.2-.5s-1.47-.5-1.4-.7h-3.2Zm-1.05,39.75a24.83,24.83,0,0,1-2,1.55c-1.2.93-1.9,1.5-2.1,1.7l2.1-.7c.4,0,.63.23.7.7a2.79,2.79,0,0,1,1-1.2,7,7,0,0,0,1.1-1,2,2,0,0,0,.4-1.35l-.1-1.2A3.66,3.66,0,0,1,179.82,122.76Zm-2.65,5.35a8.12,8.12,0,0,1-1.5,1.5,8.75,8.75,0,0,0,2.1-.4,10.7,10.7,0,0,1,2.3-.4,1,1,0,0,1,.6.15.8.8,0,0,1,.2.65,3.91,3.91,0,0,1-1.35,2.2,23.62,23.62,0,0,1-2.25,2.1,4.77,4.77,0,0,0,3-1.1,4,4,0,0,0,1.4-3.3,9.55,9.55,0,0,0-.8-3.9A8.45,8.45,0,0,0,177.17,128.11Zm-1.5,2.4v3a5.62,5.62,0,0,0,2.5-1.55,3.44,3.44,0,0,0,1.1-2.35A6.53,6.53,0,0,1,175.67,130.51Zm1.5,4.35a2.82,2.82,0,0,0-1.5,2.15,5.14,5.14,0,0,0,2.6-1.3c1.13-.87,1.73-1.6,1.8-2.2A8.1,8.1,0,0,0,177.17,134.86Zm-1.35,5.2c.1.43.25.65.45.65a7.86,7.86,0,0,0,2-1.4c1.17-.94,2-1.67,2.55-2.2a12.26,12.26,0,0,0-3.25.55q-2,.54-2,1.65A7.07,7.07,0,0,0,175.82,140.06Zm.15-25.85a4.68,4.68,0,0,0,.1,1.05c.07.3.2.45.4.45a2.2,2.2,0,0,0,1.25-.45c.43-.3.68-.49.75-.55a4.37,4.37,0,0,1,2-1v-1.9h-.4l-3.2,3.1c-.07-.14-.15-.32-.25-.55a1.57,1.57,0,0,1-.15-.55,2.81,2.81,0,0,1,1.4-2,12.14,12.14,0,0,1,2.6-1.55v-2l-.4.8-.4-.3C177.2,111.17,176,113,176,114.21Zm.95,1.85a1.94,1.94,0,0,0-.95,1.65,4.4,4.4,0,0,0,.1,1.3c.2-.2.75-.69,1.65-1.45a3.11,3.11,0,0,0,1.35-2.15A3.66,3.66,0,0,0,176.92,116.06Zm-.85,8.45,2.8-2.8c-.27-.27-.4-.47-.4-.6,0-.34.22-.59.65-.75a3.63,3.63,0,0,1,1.35-.25v-3.6l-.8-.3a6.59,6.59,0,0,1-1.45,2.25,11.75,11.75,0,0,1-2.15,2.05Zm3.6-18.2q0,1.2-1.8,1.2a2.22,2.22,0,0,1-1.4-.4V111a4.23,4.23,0,0,1,.85-1c.37-.34.65-.6.85-.8a14.51,14.51,0,0,0,2-2.2,4.24,4.24,0,0,0,.7-2.5v-.4c0-.54-.13-.84-.4-.9a4,4,0,0,1-1.2,1.1,12.13,12.13,0,0,0-1.5,1.15,1.64,1.64,0,0,0-.6,1.25A6,6,0,0,0,179.67,106.31Zm-2,14.6v1.2h-1.2A1.29,1.29,0,0,1,177.67,120.91Zm10.9,23.3q4.4-.41,6.6-.4a8.42,8.42,0,0,1,1.25-3.95,26.09,26.09,0,0,1,2.65-4h-8.8a29.26,29.26,0,0,1-4.35,3.75,22.73,22.73,0,0,1-4.75,3l.5.4c0,.53-.4.8-1.2.8q-.9,0-.9-.6c0-.27.62-.77,1.85-1.5a17.76,17.76,0,0,0,2.15-1.4,1.65,1.65,0,0,0,.45-1.1,2,2,0,0,1,.35-1.1,2.56,2.56,0,0,1,1.6-.6,2.92,2.92,0,0,0-1,.85,2.46,2.46,0,0,0-.2,1.15,12.88,12.88,0,0,1,2.2-2.3c.87-.8,1.47-1.37,1.8-1.7H188a15.68,15.68,0,0,0-3.35.35,3,3,0,0,0-2.15,1.25l-.5-.4a1.53,1.53,0,0,1-.45,1.2,5.58,5.58,0,0,1-1,.7,6.33,6.33,0,0,1-.85.4,7.49,7.49,0,0,0-1.15,1.2,6,6,0,0,1-1.25,1.2,5.94,5.94,0,0,0,1.35-.15,5.94,5.94,0,0,1,1.35-.15l.1.4-.4.3a2,2,0,0,1-.3-.4,13.72,13.72,0,0,1-1.5,1c-.87.53-1.33,1-1.4,1.4a14.82,14.82,0,0,0,5.5.8C183.44,144.61,185.64,144.47,188.57,144.21Zm-9.75-51.35a1.64,1.64,0,0,1-.75.45l-.4-.8a5.54,5.54,0,0,1,2.05-1.35,10.6,10.6,0,0,1,2.75-.25h.8a5.09,5.09,0,0,1-2.2.8,12.56,12.56,0,0,0-1.8.4A1.75,1.75,0,0,1,178.82,92.86Zm28.2,5.4a6.15,6.15,0,0,0-1-.45c-.37-.14-.85-.34-1.45-.6q-1.09,0-3.9-1.8a26.71,26.71,0,0,0-2.4-1.3l-3.2-.5c-2.33-.4-4-.64-5.1-.7a7.29,7.29,0,0,1-1.55-.65,3.93,3.93,0,0,0-1.75-.55,2.8,2.8,0,0,0-2.1,1.2,3.63,3.63,0,0,0-1,2.3,5.56,5.56,0,0,0,.05.8,3.5,3.5,0,0,1,0,.5c0,4.26-.12,7.6-.35,10s-.35,3.76-.35,4.1l-.2,2.1a73.88,73.88,0,0,0,.7,9.4q.6,6.2.6,9.3a2.3,2.3,0,0,1-.4,1.65,3,3,0,0,1-1.25.55,2.12,2.12,0,0,0-1.25.7l-.3-.4a4.9,4.9,0,0,1-1.6,1.8,9.46,9.46,0,0,0-1.6,1.4,4.34,4.34,0,0,0,2.05-.45,9.09,9.09,0,0,0,1.75-1.25,9.58,9.58,0,0,1,1.7-1.15,3.45,3.45,0,0,1,1.6-.35h14.3a12.49,12.49,0,0,0,7.35-2.45,18.2,18.2,0,0,0,5.5-6.25,15.87,15.87,0,0,0,2.05-7.6,19.76,19.76,0,0,0-.4-3.3,14.91,14.91,0,0,1-.5-3.5,11.27,11.27,0,0,1-1.25-3c-.7-2-1.15-3.44-1.35-4.3-.33-.54-.75-1.24-1.25-2.1a19.59,19.59,0,0,1-1.15-2.3A4.87,4.87,0,0,0,207,98.26Zm-22.65,43.55.1.4c0,.53-.3.8-.9.8C183.57,142.74,183.84,142.34,184.37,141.81Zm1.75-.45a2.51,2.51,0,0,1,1-.25l-1.6,1.1A.86.86,0,0,1,186.12,141.36ZM190,87.51c-1.3,1.2-2.12,1.8-2.45,1.8h-1.2v1.2l3.6-1.6a1.32,1.32,0,0,1-.25.6,10.46,10.46,0,0,0-.55,1,3.69,3.69,0,0,0,1.8.4c.4,0,1.48-.6,3.25-1.8s2.68-2,2.75-2.5l-2.3.9a12.19,12.19,0,0,0-3.9,1.8v-.8c.33-.14,1.32-.59,2.95-1.35s2.45-1.35,2.45-1.75-.6-.5-1.8-.5l-1.7.1C192.2,85.47,191.32,86.31,190,87.51ZM188,141.11l-.1-.3a1.88,1.88,0,0,1,.45-.5,2.94,2.94,0,0,1,.85-.5C189.17,140.27,188.77,140.71,188,141.11Zm6.3-1.85a8.09,8.09,0,0,1,2.8-1.75c0,.4-.62,1.06-1.85,2s-2.52,1.81-3.85,2.65-2.2,1.38-2.6,1.65c-.07,0-.1-.2-.1-.6a10.23,10.23,0,0,1,1.75-2.75c1.17-1.57,1.92-2.35,2.25-2.35v.6a3.16,3.16,0,0,1,1.2-1.05,2.84,2.84,0,0,0,1.1-.95l.5.8c-.07.2-.45.53-1.15,1a13,13,0,0,0-1.75,1.35,2,2,0,0,0-.7,1.55C192.34,140.94,193.14,140.22,194.27,139.26Zm28.35-20.2q1.35-1.16,1.65-1.35a7.27,7.27,0,0,1,2-1.5c0,.2-.17.46-.5.8,1.13,0,1.7-1.07,1.7-3.2,0-.87-.13-1.4-.4-1.6.07-.34.13-.79.2-1.35a11.52,11.52,0,0,0,.1-1.35,2.86,2.86,0,0,0-.3-1.3l-2.4,1.3c0-.27.28-.6.85-1s.85-.77.85-1.1q-.6,0-.6-.3a5.05,5.05,0,0,0,.8-.9,5,5,0,0,0-.2-1.15,8.34,8.34,0,0,1-.2-.85,1.87,1.87,0,0,0-1,.5,2,2,0,0,1-1,.5c-.2,0-.35-.17-.45-.5s-.18-.5-.25-.5a1.58,1.58,0,0,0-.65.25,2,2,0,0,1-.95.25,1.21,1.21,0,0,1,.8-1.1,7.1,7.1,0,0,1,1.65-.6l1.15-.3a2.8,2.8,0,0,0-.25-1.1,2.56,2.56,0,0,1-.25-.9,3.51,3.51,0,0,0-1.45.65,3.47,3.47,0,0,0-1.25,1v-1.2h-.8v-1c.2-.07.62-.24,1.25-.5a4.81,4.81,0,0,0,1.15-.6c-.27-.47-.83-1.3-1.7-2.5a33.43,33.43,0,0,0-2.3-2.9,12.72,12.72,0,0,0-2.3-2.1c-.73-.6-1.45-1.22-2.15-1.85s-1-1.12-1-1.45a10.93,10.93,0,0,1-3.15-.7c-1.37-.47-2.15-1-2.35-1.5a5.83,5.83,0,0,0-2.5,1,7.85,7.85,0,0,0-2.3,1.8,4.55,4.55,0,0,1-.4-1.6.61.61,0,0,1,.4-.65,6.4,6.4,0,0,1,1.5-.25c.73-.07,1.17-.27,1.3-.6l-1,.1q-1.5,0-1.8-.9a1.44,1.44,0,0,1-.3.8,2.67,2.67,0,0,1-1.05-.25,4.8,4.8,0,0,0-1.85-.25c-1.33,0-2.1.26-2.3.8h1.2c-.13.06-.92.55-2.35,1.45a16,16,0,0,0-3.25,2.55,6,6,0,0,0,2.3-.5l1.4-.6a15.56,15.56,0,0,1,2-.85,5.6,5.6,0,0,1,1.9-.35v.4c0,.33-.83.66-2.5,1a19.14,19.14,0,0,0-3.05.85c-.77.3-1.18.71-1.25,1.25a5.12,5.12,0,0,0,1.6.3,9.63,9.63,0,0,0,2-.3v1c.27,0,.47-.19.6-.55a2.84,2.84,0,0,0,.2-.85l3.9-2.4.1.4c0,.46-.13.73-.4.8v-.4a5,5,0,0,0-2.15,1.35c-.7.7-1,1.18-1,1.45a7.2,7.2,0,0,1,3.2-1.2v.8l-2.4,1.2a1.39,1.39,0,0,0,.9.5c.4.06.93.11,1.6.15s1,.21,1,.55a2.16,2.16,0,0,0,.25-.35l.25-.45a3.26,3.26,0,0,0-.3-.25.54.54,0,0,1-.2-.45c0-.2.73-.64,2.2-1.3,1.73-.8,2.6-1.3,2.6-1.5a2.11,2.11,0,0,0-.7-.1,1.88,1.88,0,0,0-.7.25,2.09,2.09,0,0,1-.7.25.27.27,0,0,1-.3-.3c0-.2.27-.45.8-.75a3.41,3.41,0,0,1,1.7-.45,2.73,2.73,0,0,1,1.15.2,2.34,2.34,0,0,0,.55.2c0,.53-.83,1.23-2.5,2.1s-2.9,1.76-3.3,2.5a10.22,10.22,0,0,0,2.5-1.2,26.32,26.32,0,0,1,3.5-1.5,9,9,0,0,1,2.9-.5,6.34,6.34,0,0,1,.6.35c.27.16.4.31.4.45q-2.6.39-6.3,4.7l.3.1a6.07,6.07,0,0,0,.7-.5,1.47,1.47,0,0,1,.9-.4.34.34,0,0,1,.3.15.58.58,0,0,1,.1.35,2.91,2.91,0,0,1,.85-1,4.15,4.15,0,0,1,1.1-.5,9.05,9.05,0,0,0,1.25-.5l.1.4a.47.47,0,0,1-.3.5,2.62,2.62,0,0,1-.75.1.86.86,0,0,0-.65.2c0,.4-.45.83-1.35,1.3s-1.35.9-1.35,1.3c0,.93.27,1.4.8,1.4.27,0,.67-.34,1.2-1a19.18,19.18,0,0,1,1.45-1.65,2.2,2.2,0,0,1,1.65-.65c.47,0,.73,0,.8.1a4.58,4.58,0,0,1-1.7,1.3,8.28,8.28,0,0,0-1.8,1.4l.3.4a4.51,4.51,0,0,1,2-1.1,8.21,8.21,0,0,1,2.35-.5c0,.6-.38,1.08-1.15,1.45a15.39,15.39,0,0,1-2.75,1c-1.07.26-1.6.46-1.6.6a4,4,0,0,0,.55,1.45q.56,1.05.75,1c0-.47.6-1.09,1.8-1.85a6.25,6.25,0,0,1,2.4-1.15l.3.1a3.4,3.4,0,0,0,1.5-.9,3.37,3.37,0,0,1,2.1-.9,29.25,29.25,0,0,1-7.1,4.4h.6a11.61,11.61,0,0,0,2.2-.45,14.14,14.14,0,0,0,2.3-.75c0,.46-.82,1.06-2.45,1.8a10.31,10.31,0,0,1-3.45,1.1,59.51,59.51,0,0,1,2.7,8.5c.07.46.23,1.23.5,2.3a8.87,8.87,0,0,1,3.4-2.4,10.32,10.32,0,0,0,3.3-2.3,1.73,1.73,0,0,1-.6,1.4,7.2,7.2,0,0,1-1.9,1,7.2,7.2,0,0,0-1.7.9,1.33,1.33,0,0,0-.5,1.1,9.4,9.4,0,0,1,1.6-.7,14.63,14.63,0,0,1,1.5-.5,5.61,5.61,0,0,1-1.65,1.4,4.14,4.14,0,0,1-2,.7,1.48,1.48,0,0,1-.6-.1,4.87,4.87,0,0,0-.5,2.2l.1,2.2a2.29,2.29,0,0,0,.4-.65,2.15,2.15,0,0,1,.4-.65l.6.1c.33,0,1-.5,2-1.5,1.2-1.34,2.13-2,2.8-2,0,.8-.67,1.46-2,2s-1.9,1.16-1.9,1.9c0,.2,0,.3.1.3a9.12,9.12,0,0,1,5.5-2l-6,3.2-.3.4v-1.6a1.25,1.25,0,0,0-.65,1c-.1.56-.15.88-.15,1l-.4-.4c-1.07.66-1.6,1.86-1.6,3.6a10.67,10.67,0,0,1,4.7-3.2l.1.4c0,.2-.42.53-1.25,1a3.73,3.73,0,0,0-1.55,1.3,32.13,32.13,0,0,1,4.5-1.8c.07-.07.65-.44,1.75-1.1a5.56,5.56,0,0,1,2.65-1v1.2a2.44,2.44,0,0,0,.85-1.5,16.14,16.14,0,0,0,.15-2.5c-.93.2-1.47.46-1.6.8l.3.4c-.4.2-.88.41-1.45.65a5.81,5.81,0,0,0-1.25.65,1.67,1.67,0,0,0-.7.75c-.13.3-.7.68-1.7,1.15l-.4-1.2A7.09,7.09,0,0,0,222.62,119.06Zm-6.3,17.4a15,15,0,0,0,3.75-3.15,27.36,27.36,0,0,0,3-4.9c1.87-2.94,3-4.8,3.4-5.6q-.9,1-6.2,2.7a9.68,9.68,0,0,0-2.1.8,8.29,8.29,0,0,1,2.3-1.4c1.53-.74,2.7-1.35,3.5-1.85s1.2-1,1.2-1.45a3.44,3.44,0,0,0-1.65.65,3.55,3.55,0,0,1-1.65.65l-4.3,1.9a6.28,6.28,0,0,0-3.25,1.3q-1.95,1.29-1.95,2.7a5.44,5.44,0,0,0,2.6-1.1,6.3,6.3,0,0,1,2.6-1.2l-.4.3v.8a23.27,23.27,0,0,1,3.25-1.15,11.89,11.89,0,0,1,3.05-.35v.7c0,.26-.33.7-1,1.3a4.63,4.63,0,0,1-1.8,1.1q-.6,0-1.8,1.2a3.78,3.78,0,0,1-2.8,1.8c0-.4.73-1.17,2.2-2.3a37,37,0,0,1,3.2-2.3.6.6,0,0,0-.4-.4,7.07,7.07,0,0,0-3,1.1,8,8,0,0,1-3.3,1.2,1.43,1.43,0,0,1,.4-.8,1.72,1.72,0,0,0,.4-1.1,27.77,27.77,0,0,0-3,3.1q-3,3.3-3.3,3.6c-.2.2-1,.8-2.45,1.8a9.91,9.91,0,0,1-2.25,1.4l-2.65,1.75a37.83,37.83,0,0,0-3.55,2.6c-1,.83-1.5,1.51-1.5,2a16.45,16.45,0,0,0,5.6-.9,40.41,40.41,0,0,0,6.4-3.2v.5A83.82,83.82,0,0,0,216.32,136.46Zm-6.1-5.65a8,8,0,0,0-1.3,1.25,4.09,4.09,0,0,1-1.25,1.05,21.61,21.61,0,0,1-2.7,1.1q-.3.09-1.95.75a8.93,8.93,0,0,0-2.85,1.75,5.17,5.17,0,0,0-1.2,2.1c-.07.13-.22.46-.45,1a3.1,3.1,0,0,1-1.05,1.3,3.78,3.78,0,0,0,1.75-.7,20.47,20.47,0,0,0,1.65-1.3,7.39,7.39,0,0,1,3.2-2l3.2-3.2a.62.62,0,0,0,.4.1,2.21,2.21,0,0,0,1.55-.75,10.79,10.79,0,0,0,1.35-1.65,8.94,8.94,0,0,1,.9-1.2A2.05,2.05,0,0,0,210.22,130.81Zm-5.5-40.7,1.35-.4c0,.33-.27.66-.8,1a2.71,2.71,0,0,1-1.3.5c-.2,0-.3,0-.3-.1C203.67,90.64,204,90.31,204.72,90.11Zm2.05,5.6c.67-.4,1.78-1.17,3.35-2.3a20.63,20.63,0,0,0,2.65-2.1,48.67,48.67,0,0,0-4.65,1.9q-2.85,1.29-2.85,1.8C205.27,95.47,205.77,95.71,206.77,95.71Zm-.7,43.3c.07,0,.1,0,.1.1Zm4.15-3.35a7.48,7.48,0,0,1,2.55-1.75l.1.4q0,.8-3.6,3.8a13.66,13.66,0,0,0-2.4,2.2.76.76,0,0,1-.45-.6,1,1,0,0,0-.25-.6h.3a2.74,2.74,0,0,0,1.8-1.05,2.9,2.9,0,0,0,1-1.75l.4.4A2.33,2.33,0,0,1,210.22,135.66Zm1.85-3.35a4,4,0,0,1,1.1-.8c0,.6-.27.9-.8.9Zm3.5.8a3,3,0,0,1-2.1,1,3,3,0,0,1,.7-1.05c.47-.57.77-.85.9-.85C215.07,132.74,215.24,133,215.57,133.11Zm.8-26.8a2.24,2.24,0,0,1-.8,1.1,3.26,3.26,0,0,1-.25-.3.69.69,0,0,1-.15-.4q.5-1.8,4.7-3.5c-.13.2-.52.83-1.15,1.9s-1.15,1.6-1.55,1.6a2.45,2.45,0,0,1,.4-1.2l-.4-.1C216.9,105.41,216.64,105.71,216.37,106.31Zm1.9-12.6a6.93,6.93,0,0,0-1,.8,3,3,0,0,1-1,.7,1,1,0,0,1-.7-.3,5.19,5.19,0,0,0,1.25-.75,1.2,1.2,0,0,0,.55-.85h-.6c.07-.34.33-.5.8-.5S218.27,93.11,218.27,93.71Zm-2.3,30.8h.4V124Zm3.1-14.7a3.88,3.88,0,0,1-1.1,1.7.47.47,0,0,0-.15-.35.4.4,0,0,0-.25-.15.92.92,0,0,0-.45.15.84.84,0,0,0-.35.35.57.57,0,0,1-.1-.4,2.67,2.67,0,0,1,1.3-2,5.79,5.79,0,0,1,2.3-1.2A4.15,4.15,0,0,0,219.07,109.81Zm1.7-12.3-3.3.2c-.07,0-.13-.1-.2-.3,0-.4.52-.74,1.55-1a10,10,0,0,1,2.25-.4c.27,0,.43.21.5.65a6.4,6.4,0,0,1,.1.85Zm-2,8.8a6.36,6.36,0,0,1,.8-1,4.78,4.78,0,0,0,.7-1l.4.4.8-.7-.4,2.3Zm3.45,2.85a9.58,9.58,0,0,1-2.75.85q0-.7,2.7-1.5a10.55,10.55,0,0,1,1.25-.5,4.86,4.86,0,0,0,1.25-.6A4.47,4.47,0,0,1,222.22,109.16Zm-.75-2v-.25a1.45,1.45,0,0,1,.15-.8c.1-.14.35-.2.75-.2,0,.46.13.7.4.7l-1.2.8A.33.33,0,0,1,221.47,107.16Zm5.6,5.85c-.87.46-1.68.93-2.45,1.4s-1.28.8-1.55,1l-.1-.3c0-.74.7-1.17,2.1-1.3q0-.9,1.2-1.2v.4Zm-2.4-1.25a4.34,4.34,0,0,1,1.6-.35v.4l-2.8.8A2.27,2.27,0,0,1,224.67,111.76Z" transform="translate(0.49 3.75)"/><path class="s" d="M287.27,127.21a20.56,20.56,0,0,1-1.65,8.85,14.57,14.57,0,0,1-4.85,5.7,38.94,38.94,0,0,1-8.5,4.25c-.53.2-1.18.46-1.95.8a12,12,0,0,1-2.1.7,11.25,11.25,0,0,1-2.25.2,26.84,26.84,0,0,1-7.75-1.1,72.53,72.53,0,0,1-8.35-3.2q-.7-.3-2.85-1a26.68,26.68,0,0,1-3.65-1.55,11.49,11.49,0,0,1-3.8-3.7,33.38,33.38,0,0,1-3.4-6,14,14,0,0,1-1.4-5.3,22.29,22.29,0,0,1,1.15-8,51.47,51.47,0,0,1,4.55-8.25q5.29-10.41,19.7-12.3h1.7a10.64,10.64,0,0,1,2.75.35,22.69,22.69,0,0,1,2.65.85l2.8.9q6,1.5,9,5a36.27,36.27,0,0,1,5.7,10.15A33.09,33.09,0,0,1,287.27,127.21Zm-49.9-.7a24,24,0,0,1,4.8-2,18.24,18.24,0,0,0,5.7-2.7,27.77,27.77,0,0,0-6.65,1q-3.94,1-3.95,2.9A1.64,1.64,0,0,0,237.37,126.51Zm2.35-8c-1.3.43-1.95,1.51-1.95,3.25,1.67-.47,3.68-1.14,6-2s4-1.47,4.75-1.8l-2.6-.1h-.7A18.17,18.17,0,0,0,239.72,118.56Zm-1.35,11.2a.87.87,0,0,0,.7.25c.8,0,2.73-.74,5.8-2.2.4-.2.77-.37,1.1-.5a8.18,8.18,0,0,1,.8-.3v-.5l-.4.1-2.4.6a21.19,21.19,0,0,0-5.8,1.7A1.41,1.41,0,0,0,238.37,129.76Zm.7-12.65c.47-.2,1.53-.62,3.2-1.25a31.82,31.82,0,0,0,4.1-1.85,14.54,14.54,0,0,0-3.15.6,33.66,33.66,0,0,0-3.75,1.2A1.76,1.76,0,0,0,239.07,117.11Zm5.5,7.7-2.15.8a21.24,21.24,0,0,0-2.5,1c-.57.3-.85.55-.85.75a17.12,17.12,0,0,1,3.4-.6,18.32,18.32,0,0,0,4.6-1.1,3.18,3.18,0,0,0,1.9-2.6A19,19,0,0,1,244.57,124.81Zm.2,6.95q3.4-1.26,4.6-1.75a28.49,28.49,0,0,0-9.4,1.7,2.93,2.93,0,0,0,.4.85q.3.45.6.45A27.32,27.32,0,0,0,244.77,131.76Zm2.6-19.95a23.82,23.82,0,0,0-4.45.85,4.33,4.33,0,0,0-2.55,1.85,19.66,19.66,0,0,1,8.9-2.2c.6,0,.93.16,1,.5a2,2,0,0,0-.6.8,2.45,2.45,0,0,1-.7.9l-6.9,2.6.5.4c.67-.14,1.6-.27,2.8-.4a11.74,11.74,0,0,0,3.6-1,5.2,5.2,0,0,0,2.2-2.55c0-.87.68-1.92,2.05-3.15a22.22,22.22,0,0,1,4.75-3.25,10.17,10.17,0,0,1,4.4-1.4,16,16,0,0,0,2.05.9,7.19,7.19,0,0,0,2.25.6,6.63,6.63,0,0,0,2.15-1.35,16,16,0,0,0,2.15-1.85c.07,0,.23-.14.5-.4h-1.3a1.07,1.07,0,0,1,.3-.8,2.26,2.26,0,0,1,1-.5,1.65,1.65,0,0,0-.4-.25,1.19,1.19,0,0,0-.5-.15,9.15,9.15,0,0,1-.9.55c-.53.3-.8.55-.8.75.07,0,.15.08.25.25a.86.86,0,0,1,.15.45c0,.86-1.3,1.3-3.9,1.3h-.7q-.6,0-.6-.3l1.3-1.7a62.6,62.6,0,0,0-9.8,3.7q-3,1.39-4.4,1.9a1.93,1.93,0,0,0-1,.75,3.24,3.24,0,0,0-.35,1.1c-.07.43-.2.68-.4.75Zm-2.65,16.95a14.36,14.36,0,0,0-3.05,1.25h.7a28.25,28.25,0,0,0,4.25-.45c1.83-.3,2.75-.72,2.75-1.25a1.35,1.35,0,0,0-.2-.65c-.13-.24-.27-.35-.4-.35Zm2.2,6.9c2-.84,3.15-1.45,3.35-1.85l-.9-.3a27.37,27.37,0,0,1-7.6,1.4,2.86,2.86,0,0,0,.35,1.2,1.34,1.34,0,0,0,.85.8A14.62,14.62,0,0,0,246.92,135.66Zm-1.15-29.85a10.13,10.13,0,0,0-2.65,3,6.24,6.24,0,0,0-1.05,3.15l4.3-1.2a5.55,5.55,0,0,1,.6-1.1c.27-.4.5-.64.7-.7l7.8-3.1-.1-.4a1.12,1.12,0,0,1,.75-1,10.12,10.12,0,0,1,2.25-.65,8.51,8.51,0,0,0,1.1-.2,2.09,2.09,0,0,0,1.2-.6l-.5-.1a8.88,8.88,0,0,0-3.6.9c-1.33.6-2.07.93-2.2,1h-.7a1.74,1.74,0,0,0-1.2.3l.4.5-1.1.3v-1.2h-.4l-1.8,1.55a7.38,7.38,0,0,1-4.9,1.45,3.84,3.84,0,0,1,1.55-1.2l1.25-.6c1.07-.34,1.7-.74,1.9-1.2H249A5.32,5.32,0,0,0,245.77,105.81Zm5.4,26.4a1.23,1.23,0,0,0-.2-.55c-.13-.24-.27-.35-.4-.35l-4.6,1.3-1-.1c-.87,0-1.3.23-1.3.7l.1.3A19.67,19.67,0,0,0,251.17,132.21Zm-5.55,7.15a10.23,10.23,0,0,0,2,.55l5.2-3-.6-.2-8,1.5A2.86,2.86,0,0,0,245.62,139.36Zm2.15-18.75c.87-.27,1.3-.64,1.3-1.1l-.1-.3a4.77,4.77,0,0,1-1.65.7,18.91,18.91,0,0,0-2.65,1l.9.1A8,8,0,0,0,247.77,120.61Zm1.9,20.55a8.66,8.66,0,0,0,2.2.45c.4-.14,1.17-.42,2.3-.85a28.34,28.34,0,0,0,3.25-1.5c1-.57,1.55-1,1.55-1.45a19.81,19.81,0,0,1-7.3,2l-1.7.25a12.5,12.5,0,0,0-1.8.35Q248.17,140.71,249.67,141.16Zm-.3-38.25a14.24,14.24,0,0,0,3.9-.55,3.87,3.87,0,0,0,2.6-2C252.8,100.84,250.64,101.71,249.37,102.91Zm2.2,32.05c-.67.16-1,.31-1,.45s.3.3.9.3a10,10,0,0,0,1.75-.2q1-.21,1.35-.3a2,2,0,0,0-1.3-.5A7,7,0,0,0,251.57,135Zm22.8-6.45a27.27,27.27,0,0,1,5.2-3.2l-.6-.1a8.29,8.29,0,0,0-2.45.65,10,10,0,0,1-2.15.65c-.13,0-.23-.09-.3-.25a1.12,1.12,0,0,1-.1-.35,2.17,2.17,0,0,1,.85-1.5,20.22,20.22,0,0,1,2.45-1.9c1.33-1.07,2.1-1.7,2.3-1.9h-.4l-5.6,2.1a8.85,8.85,0,0,0-.65,2.65,7.51,7.51,0,0,1-1.15,3.35,24,24,0,0,1-2.9,3h-.5a5.16,5.16,0,0,0,2.1-3.15,19.9,19.9,0,0,0,.5-4.65,28.86,28.86,0,0,0-.65-5.45,20.18,20.18,0,0,0-2.05-5.8c-.93-1.7-2.07-2.65-3.4-2.85a2.71,2.71,0,0,1-1.3.5,2.94,2.94,0,0,1-1.55-.7,2.86,2.86,0,0,0-1.55-.7,6,6,0,0,0-3.45,1.5,14.81,14.81,0,0,0-3.3,3.5,6.39,6.39,0,0,0-1.35,3.3l.1,1a7.11,7.11,0,0,1-.45,1.7,9.83,9.83,0,0,0-.45,3.2,12.15,12.15,0,0,0,2.7,8.1,9.29,9.29,0,0,0,7.5,3.2q6.19,0,10.9-5.7a2.6,2.6,0,0,0-.4,1.3Zm-21.2,9.2,2.3.1a1.38,1.38,0,0,0,.8-.5,1.55,1.55,0,0,0,.5-1.1Zm1.3,5.2a7.7,7.7,0,0,0,2.85-.95,25.41,25.41,0,0,1,2.55-1.15l-6.1,1.7C253.77,142.77,254,142.91,254.47,142.91Zm10.9-3.3v.3l-3.8,1.7a13.42,13.42,0,0,0,5.05-1,21.83,21.83,0,0,0,4.85-2.85q1.09-.81,5-3.3c2.53-1.6,4.17-2.67,4.9-3.2a8.81,8.81,0,0,0-3.4.7,28.24,28.24,0,0,0-4,2.1c-1.47.86-2.72,1.53-3.75,2a7.67,7.67,0,0,1-3.15.7v-.9a9.72,9.72,0,0,0-2.65.7c-1.3.46-2,.86-2.05,1.2a9,9,0,0,0-2-.75,12.35,12.35,0,0,0-2.4-.65c0,.8.55,1.26,1.65,1.4l1.75.2c0,.2-.83.7-2.5,1.5a8.8,8.8,0,0,0-2.2,1.3c2.07-.54,3.33-.84,3.8-.9,1.47-.34,2.93-.74,4.4-1.2C265.2,138.77,265.37,139.07,265.37,139.61Zm-4.1,5.1a12.18,12.18,0,0,0,2.9-1.1,32.27,32.27,0,0,0,3.8-2c.07,0,.13-.05.2-.15s.13-.15.2-.15a20.65,20.65,0,0,0-5.45.8,24.44,24.44,0,0,0-5.35,2.1A15.5,15.5,0,0,0,261.27,144.71Zm1.1-42.7a.34.34,0,0,0,.15.3.54.54,0,0,0,.25.1l4.7-.8a6.8,6.8,0,0,0-2-1,6.9,6.9,0,0,0-2.2-.4Q262.37,100.21,262.37,102Zm18.55,37.4c1.17-1.07,1.75-2,1.75-2.7l-.1-.3a31.78,31.78,0,0,1-5.8,2.75,21.72,21.72,0,0,1-4,1.25,12.82,12.82,0,0,1-4.1,2.3,15.29,15.29,0,0,0-2.2,1,10.53,10.53,0,0,0-2,1.4,2,2,0,0,0,.4.25,1.19,1.19,0,0,0,.5.15,12.29,12.29,0,0,0,2.3-.5,14.48,14.48,0,0,1,3.6-.8,60.68,60.68,0,0,0,6.6-2.6A13,13,0,0,0,280.92,139.41Zm-3.65-33.7-4.1,3.2-.3-.1a1.9,1.9,0,0,0-.95.5,2.19,2.19,0,0,1-1.35.5,9.14,9.14,0,0,1,2.1-1.8,13.81,13.81,0,0,0,1.8-1.4l-.1-.3c-2.13.8-3.58,1.36-4.35,1.7a7.86,7.86,0,0,0-1.25.6,13.62,13.62,0,0,0,1.4,2.2,13.7,13.7,0,0,1,1.6,2.4,30.72,30.72,0,0,1,3-1.85,7.94,7.94,0,0,1,2.25-1v.9a2.42,2.42,0,0,0-1.3.6,11.53,11.53,0,0,0-1.3,1.1,3.61,3.61,0,0,0-.6.7c.53-.14,1.32-.37,2.35-.7a27.56,27.56,0,0,0,2.65-1,.6.6,0,0,1,.4-.4,2,2,0,0,1,1.3.4,1.38,1.38,0,0,0,.1-.6q0-.9-1.35-1a5.87,5.87,0,0,1-1.45-.25,1.47,1.47,0,0,1,.15-.55,9.72,9.72,0,0,0,.35-1,3.76,3.76,0,0,0-1.4.5,3.94,3.94,0,0,1-1.6.5l-.9-.1,3.9-1.7Zm-2.9-2a5,5,0,0,0-2.4,1.1,12.36,12.36,0,0,0-2.3,1.9h.4q3.3-1.2,4.45-1.7a10.61,10.61,0,0,0,1.25-.6C275.77,103.94,275.3,103.71,274.37,103.71Zm-2.6,27.55q-2.1,1.14-2.1,2.55a5.12,5.12,0,0,1,1.15-.75,10.08,10.08,0,0,0,1.25-.75,15.22,15.22,0,0,1,1.7-1c.87-.47,1.37-.9,1.5-1.3A9,9,0,0,0,271.77,131.26Zm13-5.15a31.89,31.89,0,0,1-6.7,4c-2.4,1.26-3.9,2.1-4.5,2.5l-1.8.9h.5a28.36,28.36,0,0,0,5.55-1.95q4.76-2,6.55-2.85a.57.57,0,0,0,.35-.55c0-.3,0-.62,0-1Zm-1.8,8.55a4.75,4.75,0,0,0,1.5-3.55q-.9,0-5.5,3.15t-6.3,4.45h.9l5.6-2.6v.8A10.4,10.4,0,0,0,283,134.66Zm-1.2-21c0-.67-.27-1-.8-1-.53.26-1.37.65-2.5,1.15a20.92,20.92,0,0,0-3,1.6,10.19,10.19,0,0,0-2.3,2.05A7.19,7.19,0,0,0,275,117c.7-.3,1.18-.52,1.45-.65a9.27,9.27,0,0,1,4.4-1.5l.9.1Zm-4.95,4.5c1.43-1.07,2.35-1.74,2.75-2h-.8q-.19,0-4.8,2.1-.6.3-.6,1.5A6.55,6.55,0,0,0,276.82,118.21Zm5.75-2.1c-.2.06-.55.2-1.05.4a3.22,3.22,0,0,0-1,.6,22.55,22.55,0,0,1-2.55,1.65c-1.5.9-2.55,1.51-3.15,1.85l-.4.5,8.2-2.8Zm.5,3.6q-.7,0-4.3,3c-.73.66-1.6,1.36-2.6,2.1a15.6,15.6,0,0,0,4.75-2c1.77-1,2.65-2.09,2.65-3.15Zm1.7,5.6-.4-1.8a1.88,1.88,0,0,0-1.35.65c-.43.43-.88.85-1.35,1.25a7,7,0,0,1-2.1,1.1v.5a7.9,7.9,0,0,1,3.9-1.3Z" transform="translate(0.49 3.75)"/><path class="s" d="M331.12,136.31a36.52,36.52,0,0,1,1.35,6q-3.41,4.59-16,4.6a24.41,24.41,0,0,1-8.55-1.4,26.84,26.84,0,0,1-7.35-4.3,18.64,18.64,0,0,1-3.25-3.7,13,13,0,0,1-2.05-3.4c-.27-.8-.6-2.14-1-4a22.08,22.08,0,0,1-.6-4q0-13.71,1.9-16.7,4.1-6.51,9.4-9t13.6-2.5a19.06,19.06,0,0,1,6.45,1.8,32.08,32.08,0,0,1,6,3.9V112a1.31,1.31,0,0,1-.4.2,2.09,2.09,0,0,1-.6.1,2,2,0,0,1-1-.2,2.61,2.61,0,0,1-.75-.85,2.31,2.31,0,0,0-1.1-1,11.28,11.28,0,0,0-3.25-.75q-1.76-.15-4.35-.15a11.37,11.37,0,0,0-8.2,3,10.6,10.6,0,0,0-3.2,8.05q0,7.69,3,12.8l.5.3,2,.9a17.35,17.35,0,0,0,3.2,1.3l4.8.1a10.28,10.28,0,0,0,1.95-.15,16.09,16.09,0,0,0,2.45-.85c.2-.14.7-.52,1.5-1.15a4.22,4.22,0,0,1,1.5-.95C329.74,132.81,330.42,134,331.12,136.31Zm-30.2-16.6a8.45,8.45,0,0,0-3.75,2.5,5.94,5.94,0,0,0-1.3,3.9c.4-.2.88-.49,1.45-.85s1.08-.69,1.55-1a3.14,3.14,0,0,1,1.6-.4,1.5,1.5,0,0,1-.8,1.15,6.94,6.94,0,0,1-1.7.85,8.82,8.82,0,0,0,3-.55c1-.37,1.63-.59,1.9-.65a8.25,8.25,0,0,1,3-.9v-1.6a6.74,6.74,0,0,0-2.4.7,4.39,4.39,0,0,1-2.1.7v-.4c.4,0,1.37-.79,2.9-2.35s2.33-2.62,2.4-3.15l-.4-.1c-.2.06-.52.18-.95.35a12.78,12.78,0,0,0-1.25.55Q303.37,118.81,300.92,119.71Zm-4.85,1.4a2.22,2.22,0,0,0,1.3-.75,2.22,2.22,0,0,1,1.3-.75c.33-.14,1.25-.57,2.75-1.3a11.39,11.39,0,0,1,3.15-1.2c0-.07-.05-.14-.15-.2a.45.45,0,0,1-.15-.4.6.6,0,0,1,.4-.4l.8.8.9-.9a7.27,7.27,0,0,0,.9-1.05,1.85,1.85,0,0,0,.3-1c0-.2-.07-.3-.2-.3a8.43,8.43,0,0,0-2.85,1.4,19.78,19.78,0,0,0-3.55,2.7l-1.7.4a2.06,2.06,0,0,0,1.1-.75,5.3,5.3,0,0,0,.7-1.45c.2-.6.4-.94.6-1s1.1-.4,2.3-.8a12.4,12.4,0,0,0,2.85-1.3c.7-.47,1.05-.9,1.05-1.3a.86.86,0,0,0-.15-.45.84.84,0,0,0-.35-.35,19.91,19.91,0,0,0,4.6-1.15,59,59,0,0,0,6.4-2.5c1.93-.9,2.9-1.59,2.9-2l-.2-.4c-.53.26-1.28.58-2.25,1a18.12,18.12,0,0,1-1.95.65l-6,2a1.14,1.14,0,0,1-.7.4.9.9,0,0,1-.8-.6,8.48,8.48,0,0,1,1.2-1,9.22,9.22,0,0,0,1.1-.85c0-.2.27-.57.8-1.1-1.13.6-2.8,1.41-5,2.45s-4.23,2-6.1,2.75a2.14,2.14,0,0,1-1.05,1l-.95.45a8.66,8.66,0,0,0-1.55.75,1.4,1.4,0,0,0-.65,1.05l-.8,3.7a7.2,7.2,0,0,1,3.3-1.1c-.33.33-1,.9-1.95,1.7a7.49,7.49,0,0,1-1.65,1.2Zm.8,9.4a.73.73,0,0,0,.7-.6l6.9-3.5,1.4-1.3a27.89,27.89,0,0,0-8.7,2l-.4-.4c-.47.46-.7.8-.7,1v.6C296.07,129.77,296.34,130.51,296.87,130.51Zm2.4,5.85a1.76,1.76,0,0,0,1.3.65,2.51,2.51,0,0,0,1.45-.55c.5-.37.78-.59.85-.65s.4-.3,1-.7a3.36,3.36,0,0,1,1.9-.6c0,.2-.28.6-.85,1.2s-.92.9-1.05.9c.47-.07.93-.15,1.4-.25a5.55,5.55,0,0,1,1-.15l-.4.8-.4-.4a1.8,1.8,0,0,1-1,1.2,3.34,3.34,0,0,0,1.5-.3,7.87,7.87,0,0,0,1.35-.9,4.51,4.51,0,0,1,1.35-.8l-.5-.5a1.64,1.64,0,0,1,.7-.5q.6-.3.6-.6a12.93,12.93,0,0,1-1.2-2.8c-.13-.27-.5-1.1-1.1-2.5s-1-2.14-1.3-2.2l-1.8.8a1.75,1.75,0,0,1-.9.85c-.47.23-.88.41-1.25.55a6.18,6.18,0,0,0-.75.3,13.81,13.81,0,0,0-2.25,1,1.16,1.16,0,0,0-.65,1q-.11,0-.3-.3a2.59,2.59,0,0,1-.5.9,1.83,1.83,0,0,0-.4,1.2,6.82,6.82,0,0,0,2.5-1.2q2.1-1.2,3.75-1.95a7.61,7.61,0,0,1,3.15-.75,1.6,1.6,0,0,1-.85,1.55,11.51,11.51,0,0,1-2.55.85,10.18,10.18,0,0,0-2.15.65,1.18,1.18,0,0,0-.75,1.15,1.14,1.14,0,0,1,.8-.4l1.2.1v.6a3.66,3.66,0,0,1-1.45.4,6,6,0,0,0-1.5.3.77.77,0,0,0-.55.8A1.91,1.91,0,0,0,299.27,136.36Zm-.25-27a2.68,2.68,0,0,0-1,.75c2.4,0,3.63-.37,3.7-1.1l-1.5-.1A5.91,5.91,0,0,0,299,109.36Zm3.45,12a10.17,10.17,0,0,1-4.3,2l-.1-.4c0-.47.48-.85,1.45-1.15a8.54,8.54,0,0,1,2.45-.45Zm4.5-19.6a22.56,22.56,0,0,0-4.45,2.45,5.07,5.07,0,0,0-2.35,3.15l3.9-3.2-2.4,3.6a5.64,5.64,0,0,1,2.1-1.7c1-.54,1.6-.87,1.8-1a17.12,17.12,0,0,0,4.8-3.5l-.5-.8A12.63,12.63,0,0,0,307,101.81Zm-4,38a3.21,3.21,0,0,1,.55-1.15,3.22,3.22,0,0,0,.55-1.25,1.85,1.85,0,0,1-1.3.85,2.45,2.45,0,0,0-1.4.75Zm1.5-7a3,3,0,0,0-1,.15,2.41,2.41,0,0,1-.65.15c0-.27.42-.5,1.25-.7a8.91,8.91,0,0,1,1.95-.3c.2,0,.53.23,1,.7a.79.79,0,0,1-.55.45,2.7,2.7,0,0,1-.55.15Q306,132.81,304.47,132.81Zm18.3,10.7a4.28,4.28,0,0,1,2-.8,6.25,6.25,0,0,0,2.75-1.15c1.23-.77,1.92-1.49,2.05-2.15l-1.2-3.2-.3-.1-3.5,1.35a37.47,37.47,0,0,0-5.15,2.45c-1.63.93-2.45,1.73-2.45,2.4a2.76,2.76,0,0,1-.15,1.1.56.56,0,0,1-.55.3,4.1,4.1,0,0,1-.9-.15,5.33,5.33,0,0,0-1.3-.15,1.8,1.8,0,0,1,.5-1.25A7.35,7.35,0,0,1,316,141a4.48,4.48,0,0,0,1.7-1.6l-.8-.4,1.2-1.2a14.64,14.64,0,0,0-2.75.3c-1,.2-1.55.56-1.55,1.1a.44.44,0,0,0,.5.5,3,3,0,0,0,1.8-.7l.1.4a1.45,1.45,0,0,1-.75,1.2,2.64,2.64,0,0,1-1.45.5l-.8-.3v.7c0,.06-.38.18-1.15.35a10.26,10.26,0,0,1-2,.25l-.5-.1,3.3-3-1.9-.4v-.4l2.3-1.2a1.06,1.06,0,0,0-.65-.75,3.69,3.69,0,0,0-1.15-.15q-2.4,0-7.6,3.7a4.25,4.25,0,0,0,.8-.15,5.83,5.83,0,0,1,1.4-.15c.2,0,.3,0,.3.1,0,1.06-.73,1.6-2.2,1.6q1.2,1.69,5.5,2.85a29.41,29.41,0,0,0,7.3,1.15l1.6-.1,1.2-.8.5.4q.1-1.2,2.8-3.2c1.07-.8,1.6-1.37,1.6-1.7s.33-.87,1-1.2a3.54,3.54,0,0,0,1.2-.8c.33.06.5.33.5.8h.7a3.67,3.67,0,0,1-1.6,1.2,12.3,12.3,0,0,0-2.85,2.15,15.84,15.84,0,0,0-2.45,2.35A4.81,4.81,0,0,0,322.77,143.51Zm-9.6-42.7a4.13,4.13,0,0,1-1.25,1.8,27.32,27.32,0,0,1-2.85,1.9c-.73.4-1.48.83-2.25,1.3a5.36,5.36,0,0,0-1.75,1.6h.4l8.1-4.1a5,5,0,0,1,2-1.4,3.76,3.76,0,0,0,2.1-1.4l-1.1-.1-1.7.1a3.28,3.28,0,0,1-.9-.1A.8.8,0,0,0,313.17,100.81Zm-3.3,38.1a1.9,1.9,0,0,0-1,.4,3.68,3.68,0,0,1-1,.5.57.57,0,0,1-.1-.4c0-.67.57-1.07,1.7-1.2A.7.7,0,0,1,309.87,138.91Zm1.3-38.1a.53.53,0,0,0,.6.6c.33,0,.67-.3,1-.9l-.6-.1C311.64,100.41,311.3,100.54,311.17,100.81Zm6.7,1.9a24.38,24.38,0,0,1-2.1,1.85,3.31,3.31,0,0,1-1.8.85c-.07,0-.2-.1-.4-.3l-.4,1.1a47.71,47.71,0,0,0,4.9-1.6,11.49,11.49,0,0,1,1.9-.7l1.35-.5a11.71,11.71,0,0,0,1.8-.85,4.38,4.38,0,0,0,1.15-1,9.68,9.68,0,0,1-1.8-.6l-1.4-.6C320.47,100.41,319.4,101.17,317.87,102.71Zm10.1,1.9a6.87,6.87,0,0,1-2.3.7,21,21,0,0,0-3.05,1,1.76,1.76,0,0,0-1.15,1.55l6.5.7h.4A17.76,17.76,0,0,1,328,104.61Zm.55,38.75a2.33,2.33,0,0,0,1.15-2.35q-3.3,2.19-4.6,2.9A8.47,8.47,0,0,0,328.52,143.36Zm-2.45-40.2a2,2,0,0,0-.1.55,3.15,3.15,0,0,0,1.2-.4,3.51,3.51,0,0,0-.35-.3.73.73,0,0,0-.45-.2C326.24,102.81,326.14,102.92,326.07,103.16Z" transform="translate(0.49 3.75)"/><path class="s" d="M354.87,116.71a52.9,52.9,0,0,0,7.9,3.1,73,73,0,0,1,8.3,3,15.75,15.75,0,0,1,5.5,4.1,10.08,10.08,0,0,1,2.3,6.85,12.69,12.69,0,0,1-2.7,7.85,15.45,15.45,0,0,1-6.9,5.15c-.47.2-1.2.55-2.2,1.05a6.48,6.48,0,0,1-2.9.75c-1,0-2.43.06-4.3.2l-4.4.1a17.33,17.33,0,0,1-4-.45,47.77,47.77,0,0,1-4.7-1.45c-1.73-.6-3.2-1-4.4-1.35a18.88,18.88,0,0,0-3.7-.55l-.4-.5v-9.5c0-.27.43-.4,1.3-.4q2.1,0,6.7,1.9,2.81,1,4.65,1.55a12.69,12.69,0,0,0,3.55.55,9.65,9.65,0,0,0,2.15-.25,20.07,20.07,0,0,0,2.35-.75,1.38,1.38,0,0,1-.1-.6,4.29,4.29,0,0,1,.7-2.1,6.23,6.23,0,0,0,.8-2.5,3.52,3.52,0,0,0-1.7-3.3,16.91,16.91,0,0,0-5-1.7,12.65,12.65,0,0,1-4.2-1.4q-.6-.4-2-1.2a24.27,24.27,0,0,1-2.25-1.5q-.9-.7-.9-1.2-1.5-.4-3.2-3.2a29.34,29.34,0,0,1-2.5-5l-.4-2.5a13.4,13.4,0,0,1,4.4-10.4,15.72,15.72,0,0,1,11-4c.53.06,1.23.18,2.1.35s1.8.31,2.8.45q10.2,1.89,13.2,1.9c.6,0,1.15,1,1.65,2.9a23,23,0,0,1,.75,5.8c0,2.6-.47,3.9-1.4,3.9l-.4-.1a6,6,0,0,0-2.9-2.65,17.78,17.78,0,0,0-3.75-1.1c-1.3-.24-2-.42-2-.55h-1.4a22.08,22.08,0,0,0-6.75,1q-3.15,1-3.15,3.9A4.12,4.12,0,0,0,354.87,116.71Zm-14,26.2a7.81,7.81,0,0,0,4.8-2.6,1.06,1.06,0,0,1-.55-.15.87.87,0,0,0-.35-.15,7.74,7.74,0,0,0-2.5.6q-1.61.6-1.8,1.5A1,1,0,0,0,340.87,142.91Zm0-31h.9a51.71,51.71,0,0,0,5.6-2.2q5.2-2.2,7.8-3.4l4.1-2.3c1.67-.94,3-1.74,4.1-2.4a5.29,5.29,0,0,0-2.4-.6l-.85-.05a3.11,3.11,0,0,1-1.05-.25.93.93,0,0,1-.5-.5l-8.6,4.3a7.44,7.44,0,0,0,2.85-.6c1-.4,1.55-.64,1.75-.7a10.23,10.23,0,0,1,4.4-1.3,1.18,1.18,0,0,1,.7.2.58.58,0,0,1,.3.5q0,.19-11.7,5.4h-.9l-6.5,3.5Zm1.85-4.55c-1.23.76-1.85,1.55-1.85,2.35,3.27-.8,5.43-1.94,6.5-3.4l-.9-.1A7,7,0,0,0,342.72,107.36Zm5.95,2.75a43.65,43.65,0,0,0-4.45,2,10.11,10.11,0,0,0-3,2.35,5,5,0,0,0,2.5-.75c.87-.5,1.4-.82,1.6-1a7.89,7.89,0,0,1,4-1.7c0,.26-.3.6-.9,1a8.53,8.53,0,0,0-1.1.8,9.23,9.23,0,0,0-2.1,1.6,13.94,13.94,0,0,0,1.5-.55,16.73,16.73,0,0,1,2.3-.75,10.76,10.76,0,0,0,1.15-1.85,5.53,5.53,0,0,1,2.35-2.45v-.5A25.19,25.19,0,0,1,348.67,110.11Zm-3-7.9a17.24,17.24,0,0,0-2.65,1.3,2.09,2.09,0,0,0-.95,1.9h.6q1.2,0,7.9-3l2-.8c-.67-.07-1-.17-1-.3s.43-.42,1.3-.85,1.33-.89,1.4-1.35c-2.67,0-4.4.36-5.2,1.1l-1.3.9C347.64,101.44,346.94,101.81,345.67,102.21Zm.75,14.3a15.67,15.67,0,0,0,2.65-2,17.69,17.69,0,0,1-3.4.9,20.48,20.48,0,0,0-3.5.8c.07.93.5,1.4,1.3,1.4A5.94,5.94,0,0,0,346.42,116.51Zm-2.85,26.9q2.4,0,10.7-1.8-1.8-1.31-6.9-1.3c-.53.4-1.38,1-2.55,1.75a10.14,10.14,0,0,0-1.75,1.25Zm2.25-22.7a2.93,2.93,0,0,0,.45.8,6.59,6.59,0,0,0,2.35-1.4c1.23-.94,1.85-1.54,1.85-1.8a.57.57,0,0,0-.4-.1,8.29,8.29,0,0,0-2.55.65,22.67,22.67,0,0,1-2.25.75A8.68,8.68,0,0,1,345.82,120.71Zm1.85,24.2a12.5,12.5,0,0,0,1.8.2l4.3-1.9a.87.87,0,0,1-.35-.15.92.92,0,0,0-.45-.15c-1,.13-2.23.33-3.7.6s-2.67.5-3.6.7A5.6,5.6,0,0,0,347.67,144.91Zm1.75-27.25c1-.17,1.52-.35,1.45-.55l-.9-1.4-3.9,2.2h.7A17.9,17.9,0,0,0,349.42,117.66Zm-1.15,5.3a6.23,6.23,0,0,0,1.7.55l4.7-2.6c-.33.06-1.53.25-3.6.55a35.37,35.37,0,0,0-4.1.75C347,122.34,347.4,122.59,348.27,123Zm2.75-3.35a18.78,18.78,0,0,1-1.95.9l.9.4c.07-.14.6-.29,1.6-.45s1.73-.32,2.2-.45l.5-.4a8.87,8.87,0,0,1-.85-.5,3.11,3.11,0,0,0-.75-.4Q352.17,119,351,119.61Zm3.4,2.4a5.36,5.36,0,0,0-2.35,1.9,47.39,47.39,0,0,0,8.7-1.2l3-.5a26.18,26.18,0,0,0-6.2-.9A7.51,7.51,0,0,0,354.42,122Zm19.45,18a3.33,3.33,0,0,0,.7-1.9,9.57,9.57,0,0,0-2.8.6l-4.2,1.2q-13.9,3.3-15.5,5.5a71.93,71.93,0,0,0,7.75-1.25q6.56-1.26,12.55-2.55A7.26,7.26,0,0,0,373.87,140Zm-13.4-14.9a5.58,5.58,0,0,1,2.9-1.1v-.5c-.13.06-1.5.23-4.1.5q-3.4.19-5.1.45c-1.13.16-1.67.41-1.6.75a20.17,20.17,0,0,0,5.2.9A5.5,5.5,0,0,0,360.47,125.11Zm7.1,20-1.2-.1a13.23,13.23,0,0,0-2,.2,14.67,14.67,0,0,1-1.9.2c.27,0,.4-.27.4-.8l-6,1.7a1.56,1.56,0,0,0,.65.4,3,3,0,0,0,.75.1A26.75,26.75,0,0,0,367.57,145.11Zm2.2-19.5-2.5-.8a13.75,13.75,0,0,0-2.7-.9,10.83,10.83,0,0,0-2.4,1.35,9.11,9.11,0,0,0-2.3,1.75A30.87,30.87,0,0,0,369.77,125.61Zm-9.9,14.3a2.32,2.32,0,0,0,.4.5.83.83,0,0,0,.5.3c.33-1.07,1.57-2.05,3.7-3a92.81,92.81,0,0,1,8.8-3v-.5a24,24,0,0,1-7.4,1.1c-.8,0-1.93-.07-3.4-.2Q361.87,135.41,359.87,139.91Zm4.4-38.3c-.53,0-1.3.51-2.3,1.55l-1.7,1.75h.5l5.2-3A3.89,3.89,0,0,0,364.27,101.61Zm1.7,27.05a6,6,0,0,0,2.5-1.65,26.71,26.71,0,0,0-4.25.45c-1.77.3-2.65.71-2.65,1.25s.37.9,1.1.9A8.79,8.79,0,0,0,366,128.66Zm2.5-26.25a4.48,4.48,0,0,0-1.75.4,9.44,9.44,0,0,0-1.5.75l-.75.45a16.73,16.73,0,0,1-2.5,1.4,10.89,10.89,0,0,0,2.7.4C366.2,105.81,367.47,104.67,368.47,102.41Zm.35,28.05a14.31,14.31,0,0,0-1.85.45,16,16,0,0,0-3.25.8,1.48,1.48,0,0,0-1,1.5l.1,1.1,10.4-4.7-.5-.1a2.68,2.68,0,0,0-.85.15c-.3.1-.58.18-.85.25C370.4,130.11,369.65,130.29,368.82,130.46Zm2.25-3.15-6.9,2.6v.5c.53-.07,1.58-.19,3.15-.35a23.26,23.26,0,0,0,3.9-.7,3.81,3.81,0,0,0,2-1.15A3.77,3.77,0,0,0,371.07,127.31Zm3,3.1-8.1,3.4-.5.5q3.19,0,6.8-.35t3.6-1.35C375.87,131.14,375.27,130.41,374.07,130.41Zm1.65,6.35a2.49,2.49,0,0,0,.15-.95c0-.74-.17-1.1-.5-1.1l-8.6,3.4v.6a10,10,0,0,0,3.9-1.1c.13-.07.67-.27,1.6-.6a7.82,7.82,0,0,1,2.7-.5v.8A1.18,1.18,0,0,0,375.72,136.76Zm-6.45-33.95a2.37,2.37,0,0,1-.6,1.45,8.07,8.07,0,0,0-.7.95.48.48,0,0,0,.1.25.34.34,0,0,0,.3.15c.2,0,.58-.29,1.15-.85a9.92,9.92,0,0,1,1.15-1.05A1.42,1.42,0,0,0,369.27,102.81Zm2.2,2.9a8.9,8.9,0,0,0-1.8.15,2,2,0,0,0-1.2.85,10.89,10.89,0,0,0,3,.5Z" transform="translate(0.49 3.75)"/><ellipse class="d" cx="1703.55" cy="108.64" rx="16.58" ry="15.23" transform="matrix(1, 0, 0, 1, -0.02, 12.01)"/><ellipse class="d" cx="1703.54" cy="107.8" rx="31.33" ry="28.76" transform="translate(-0.01 12.01) rotate(-0.28)"/><ellipse class="d" cx="1676.51" cy="139.11" rx="6.91" ry="6.34" transform="translate(-0.16 11.88) rotate(-0.28)"/><ellipse class="d" cx="1745.46" cy="109.17" rx="6.91" ry="6.34" transform="translate(-0.02 12.22) rotate(-0.28)"/><ellipse class="d" cx="1732.43" cy="82.17" rx="6.91" ry="6.34" transform="translate(0.11 12.15) rotate(-0.28)"/><ellipse class="d" cx="1705.66" cy="71.3" rx="6.91" ry="6.34" transform="translate(0.17 12.02) rotate(-0.28)"/><ellipse class="d" cx="1676.22" cy="80.75" rx="6.91" ry="6.34" transform="translate(0.12 11.88) rotate(-0.28)"/><ellipse class="d" cx="1661.63" cy="111.27" rx="6.91" ry="6.34" transform="translate(-0.03 11.81) rotate(-0.28)"/><ellipse class="d" cx="1703.27" cy="149.13" rx="6.91" ry="6.34" transform="translate(-0.21 12.01) rotate(-0.28)"/><ellipse class="d" cx="1730.87" cy="139.69" rx="6.91" ry="6.34" transform="translate(-0.17 12.15) rotate(-0.28)"/><ellipse class="d" cx="712.29" cy="123" rx="16.58" ry="15.23" transform="matrix(1, 0, 0, 1, -0.1, 7.21)"/><ellipse class="d" cx="712.28" cy="122.15" rx="31.33" ry="28.76" transform="translate(-0.09 7.21) rotate(-0.28)"/><ellipse class="d" cx="685.24" cy="153.47" rx="6.91" ry="6.34" transform="translate(-0.24 7.08) rotate(-0.28)"/><ellipse class="d" cx="754.2" cy="123.53" rx="6.91" ry="6.34" transform="translate(-0.1 7.41) rotate(-0.28)"/><ellipse class="d" cx="741.17" cy="96.52" rx="6.91" ry="6.34" transform="translate(0.03 7.35) rotate(-0.28)"/><ellipse class="d" cx="714.4" cy="85.65" rx="6.91" ry="6.34" transform="translate(0.08 7.22) rotate(-0.28)"/><ellipse class="d" cx="684.96" cy="95.1" rx="6.91" ry="6.34" transform="translate(0.04 7.07) rotate(-0.28)"/><ellipse class="d" cx="670.37" cy="125.63" rx="6.91" ry="6.34" transform="translate(-0.11 7) rotate(-0.28)"/><ellipse class="d" cx="712.01" cy="163.49" rx="6.91" ry="6.34" transform="translate(-0.29 7.21) rotate(-0.28)"/><ellipse class="d" cx="739.61" cy="154.05" rx="6.91" ry="6.34" transform="translate(-0.25 7.34) rotate(-0.28)"/></svg>